<?xml version="1.0" encoding="us-ascii" standalone="no"?><svg xmlns="http://www.w3.org/2000/svg" xmlns:xlink="http://www.w3.org/1999/xlink" contentStyleType="text/css" height="6632.8125px" preserveAspectRatio="none" style="width:11484px;height:6632px;background:#FFFFFF;" version="1.1" viewBox="0 0 11484 6632" width="11484.375px" zoomAndPan="magnify"><defs/><g><text fill="#000000" font-family="sans-serif" font-size="65.625" font-weight="bold" lengthAdjust="spacing" textLength="2067.1875" x="4702.7344" y="161.8744">Diagram Aktivitas - Proses Pemesanan Tiket (Horizontal Layout)</text><rect fill="none" height="106.1279" style="stroke:none;stroke-width:4.6875;" width="11332.0313" x="70.3125" y="239.3646"/><rect fill="#ADD8E6" height="6340.6403" style="stroke:#ADD8E6;stroke-width:4.6875;" width="4628.9063" x="70.3125" y="239.3646"/><ellipse cx="3091.9922" cy="415.8051" fill="#222222" rx="46.875" ry="46.875" style="stroke:#222222;stroke-width:4.6875;"/><rect fill="#ADD8E6" height="158.606" rx="58.5938" ry="58.5938" style="stroke:#0000FF;stroke-width:2.34375;" width="445.3125" x="2869.3359" y="556.4301"/><text fill="#000000" font-family="sans-serif" font-size="51.5625" lengthAdjust="spacing" textLength="351.5625" x="2916.2109" y="656.8314">Login ke Sistem</text><rect fill="#ADD8E6" height="158.606" rx="58.5938" ry="58.5938" style="stroke:#0000FF;stroke-width:2.34375;" width="581.25" x="2801.3672" y="808.786"/><text fill="#000000" font-family="sans-serif" font-size="51.5625" lengthAdjust="spacing" textLength="487.5" x="2848.2422" y="909.1873">Mencari Pertandingan</text><rect fill="#ADD8E6" height="158.606" rx="58.5938" ry="58.5938" style="stroke:#0000FF;stroke-width:2.34375;" width="693.75" x="2745.1172" y="1061.142"/><text fill="#000000" font-family="sans-serif" font-size="51.5625" lengthAdjust="spacing" textLength="600" x="2791.9922" y="1161.5433">Melihat Detail Pertandingan</text><rect fill="#ADD8E6" height="158.606" rx="58.5938" ry="58.5938" style="stroke:#0000FF;stroke-width:2.34375;" width="801.5625" x="1583.2031" y="1936.0382"/><text fill="#000000" font-family="sans-serif" font-size="51.5625" lengthAdjust="spacing" textLength="707.8125" x="1630.0781" y="2036.4395">Memilih kategori dan jumlah tiket</text><rect fill="#ADD8E6" height="158.606" rx="58.5938" ry="58.5938" style="stroke:#0000FF;stroke-width:2.34375;" width="440.625" x="1763.6719" y="2188.3942"/><text fill="#000000" font-family="sans-serif" font-size="51.5625" lengthAdjust="spacing" textLength="346.875" x="1810.5469" y="2288.7955">Klik Pesan Tiket</text><rect fill="#ADD8E6" height="158.606" rx="58.5938" ry="58.5938" style="stroke:#0000FF;stroke-width:2.34375;" width="726.5625" x="775.7813" y="3315.6464"/><text fill="#000000" font-family="sans-serif" font-size="51.5625" lengthAdjust="spacing" textLength="632.8125" x="822.6563" y="3416.0477">Memilih metode pembayaran</text><rect fill="#ADD8E6" height="158.606" rx="58.5938" ry="58.5938" style="stroke:#0000FF;stroke-width:2.34375;" width="318.75" x="979.6875" y="3568.0023"/><text fill="#000000" font-family="sans-serif" font-size="51.5625" lengthAdjust="spacing" textLength="225" x="1026.5625" y="3668.4036">Klik Bayar</text><rect fill="#ADD8E6" height="158.606" rx="58.5938" ry="58.5938" style="stroke:#0000FF;stroke-width:2.34375;" width="951.5625" x="103.125" y="5915.918"/><text fill="#000000" font-family="sans-serif" font-size="51.5625" lengthAdjust="spacing" textLength="857.8125" x="150" y="6016.3193">Menerima notifikasi pembelian berhasil</text><rect fill="#ADD8E6" height="158.606" rx="58.5938" ry="58.5938" style="stroke:#0000FF;stroke-width:2.34375;" width="960.9375" x="98.4375" y="6168.2739"/><text fill="#000000" font-family="sans-serif" font-size="51.5625" lengthAdjust="spacing" textLength="867.1875" x="145.3125" y="6268.6752">Mengunduh tiket PDF dengan QR Code</text><ellipse cx="578.9063" cy="6472.1924" fill="none" rx="51.5625" ry="51.5625" style="stroke:#222222;stroke-width:4.6875;"/><ellipse cx="578.9063" cy="6472.1924" fill="#222222" rx="28.125" ry="28.125" style="stroke:#222222;stroke-width:4.6875;"/><rect fill="#ADD8E6" height="158.606" rx="58.5938" ry="58.5938" style="stroke:#0000FF;stroke-width:2.34375;" width="951.5625" x="1223.4375" y="5329.2389"/><text fill="#000000" font-family="sans-serif" font-size="51.5625" lengthAdjust="spacing" textLength="857.8125" x="1270.3125" y="5429.6402">Menerima notifikasi pembayaran gagal</text><ellipse cx="1699.2188" cy="5692.1173" fill="none" rx="51.5625" ry="51.5625" style="stroke:#222222;stroke-width:4.6875;"/><ellipse cx="1699.2188" cy="5692.1173" fill="#222222" rx="28.125" ry="28.125" style="stroke:#222222;stroke-width:4.6875;"/><rect fill="#ADD8E6" height="158.606" rx="58.5938" ry="58.5938" style="stroke:#0000FF;stroke-width:2.34375;" width="881.25" x="2388.2813" y="3315.6464"/><text fill="#000000" font-family="sans-serif" font-size="51.5625" lengthAdjust="spacing" textLength="787.5" x="2435.1563" y="3416.0477">Menerima pesan tiket tidak tersedia</text><ellipse cx="2828.9063" cy="3619.5648" fill="none" rx="51.5625" ry="51.5625" style="stroke:#222222;stroke-width:4.6875;"/><ellipse cx="2828.9063" cy="3619.5648" fill="#222222" rx="28.125" ry="28.125" style="stroke:#222222;stroke-width:4.6875;"/><rect fill="#ADD8E6" height="158.606" rx="58.5938" ry="58.5938" style="stroke:#0000FF;stroke-width:2.34375;" width="960.9375" x="3719.5313" y="1936.0382"/><text fill="#000000" font-family="sans-serif" font-size="51.5625" lengthAdjust="spacing" textLength="867.1875" x="3766.4063" y="2036.4395">Menerima pesan penjualan tiket ditutup</text><ellipse cx="4200" cy="2239.9567" fill="none" rx="51.5625" ry="51.5625" style="stroke:#222222;stroke-width:4.6875;"/><ellipse cx="4200" cy="2239.9567" fill="#222222" rx="28.125" ry="28.125" style="stroke:#222222;stroke-width:4.6875;"/><line style="stroke:#000000;stroke-width:7.03125;" x1="70.3125" x2="70.3125" y1="239.3646" y2="6580.0049"/><rect fill="#98FB98" height="6340.6403" style="stroke:#98FB98;stroke-width:4.6875;" width="4753.125" x="4699.2188" y="239.3646"/><polygon fill="#ADD8E6" points="7413.8672,1395.4651,8079.4922,1395.4651,8135.7422,1451.7151,8079.4922,1507.9651,7413.8672,1507.9651,7357.6172,1451.7151,7413.8672,1395.4651" style="stroke:#0000FF;stroke-width:2.34375;"/><text fill="#000000" font-family="sans-serif" font-size="51.5625" lengthAdjust="spacing" textLength="665.625" x="7413.8672" y="1472.8134">Pertandingan masih tersedia?</text><text fill="#000000" font-family="sans-serif" font-size="46.875" lengthAdjust="spacing" textLength="51.5625" x="7306.0547" y="1441.4154">ya</text><text fill="#000000" font-family="sans-serif" font-size="46.875" lengthAdjust="spacing" textLength="103.125" x="8135.7422" y="1441.4154">tidak</text><rect fill="#ADD8E6" height="158.606" rx="58.5938" ry="58.5938" style="stroke:#0000FF;stroke-width:2.34375;" width="853.125" x="6212.1094" y="1601.7151"/><text fill="#000000" font-family="sans-serif" font-size="51.5625" lengthAdjust="spacing" textLength="759.375" x="6258.9844" y="1702.1164">Tampilkan kategori dan harga tiket</text><rect fill="#ADD8E6" height="158.606" rx="58.5938" ry="58.5938" style="stroke:#0000FF;stroke-width:2.34375;" width="665.625" x="6305.8594" y="2522.7173"/><text fill="#000000" font-family="sans-serif" font-size="51.5625" lengthAdjust="spacing" textLength="571.875" x="6352.7344" y="2623.1186">Periksa ketersediaan tiket</text><polygon fill="#ADD8E6" points="6474.6094,2775.0732,6802.7344,2775.0732,6858.9844,2831.3232,6802.7344,2887.5732,6474.6094,2887.5732,6418.3594,2831.3232,6474.6094,2775.0732" style="stroke:#0000FF;stroke-width:2.34375;"/><text fill="#000000" font-family="sans-serif" font-size="51.5625" lengthAdjust="spacing" textLength="328.125" x="6474.6094" y="2852.4216">Tiket tersedia?</text><text fill="#000000" font-family="sans-serif" font-size="46.875" lengthAdjust="spacing" textLength="51.5625" x="6366.7969" y="2821.0236">ya</text><text fill="#000000" font-family="sans-serif" font-size="46.875" lengthAdjust="spacing" textLength="103.125" x="6858.9844" y="2821.0236">tidak</text><rect fill="#ADD8E6" height="158.606" rx="58.5938" ry="58.5938" style="stroke:#0000FF;stroke-width:2.34375;" width="693.75" x="5446.875" y="2981.3232"/><text fill="#000000" font-family="sans-serif" font-size="51.5625" lengthAdjust="spacing" textLength="600" x="5493.75" y="3081.7245">Buat data pesanan (order)</text><rect fill="#ADD8E6" height="158.606" rx="58.5938" ry="58.5938" style="stroke:#0000FF;stroke-width:2.34375;" width="1012.5" x="4727.3438" y="4947.6105"/><text fill="#000000" font-family="sans-serif" font-size="51.5625" lengthAdjust="spacing" textLength="918.75" x="4774.2188" y="5048.0118">Update status pembayaran menjadi 'paid'</text><rect fill="#ADD8E6" height="158.606" rx="58.5938" ry="58.5938" style="stroke:#0000FF;stroke-width:2.34375;" width="623.4375" x="4921.875" y="5270.2789"/><text fill="#000000" font-family="sans-serif" font-size="51.5625" lengthAdjust="spacing" textLength="529.6875" x="4968.75" y="5370.6802">Generate QR Code tiket</text><rect fill="#ADD8E6" height="158.606" rx="58.5938" ry="58.5938" style="stroke:#0000FF;stroke-width:2.34375;" width="843.75" x="4811.7188" y="5581.5948"/><text fill="#000000" font-family="sans-serif" font-size="51.5625" lengthAdjust="spacing" textLength="750" x="4858.5938" y="5681.9962">Kirim notifikasi pembelian berhasil</text><rect fill="#ADD8E6" height="158.606" rx="58.5938" ry="58.5938" style="stroke:#0000FF;stroke-width:2.34375;" width="1040.625" x="5833.5938" y="4947.6105"/><text fill="#000000" font-family="sans-serif" font-size="51.5625" lengthAdjust="spacing" textLength="946.875" x="5880.4688" y="5048.0118">Update status pembayaran menjadi 'failed'</text><rect fill="#ADD8E6" height="158.606" rx="58.5938" ry="58.5938" style="stroke:#0000FF;stroke-width:2.34375;" width="937.5" x="7014.8438" y="2981.3232"/><text fill="#000000" font-family="sans-serif" font-size="51.5625" lengthAdjust="spacing" textLength="843.75" x="7061.7188" y="3081.7245">Tampilkan pesan "Tiket tidak tersedia"</text><rect fill="#ADD8E6" height="158.606" rx="58.5938" ry="58.5938" style="stroke:#0000FF;stroke-width:2.34375;" width="1157.8125" x="8275.7813" y="1601.7151"/><text fill="#000000" font-family="sans-serif" font-size="51.5625" lengthAdjust="spacing" textLength="1064.0625" x="8322.6563" y="1702.1164">Tampilkan pesan "Penjualan tiket sudah ditutup"</text><line style="stroke:#000000;stroke-width:7.03125;" x1="4699.2188" x2="4699.2188" y1="239.3646" y2="6580.0049"/><rect fill="#FFFFE0" height="6340.6403" style="stroke:#FFFFE0;stroke-width:4.6875;" width="1942.9688" x="9452.3438" y="239.3646"/><rect fill="#ADD8E6" height="158.606" rx="58.5938" ry="58.5938" style="stroke:#0000FF;stroke-width:2.34375;" width="782.8125" x="10003.125" y="3902.3254"/><text fill="#000000" font-family="sans-serif" font-size="51.5625" lengthAdjust="spacing" textLength="689.0625" x="10050" y="4002.7267">Menampilkan opsi pembayaran</text><rect fill="#ADD8E6" height="158.606" rx="58.5938" ry="58.5938" style="stroke:#0000FF;stroke-width:2.34375;" width="651.5625" x="10068.75" y="4154.6814"/><text fill="#000000" font-family="sans-serif" font-size="51.5625" lengthAdjust="spacing" textLength="557.8125" x="10115.625" y="4255.0827">Memproses pembayaran</text><polygon fill="#ADD8E6" points="10143.75,4407.0374,10645.3125,4407.0374,10701.5625,4463.2874,10645.3125,4519.5374,10143.75,4519.5374,10087.5,4463.2874,10143.75,4407.0374" style="stroke:#0000FF;stroke-width:2.34375;"/><text fill="#000000" font-family="sans-serif" font-size="51.5625" lengthAdjust="spacing" textLength="501.5625" x="10143.75" y="4484.3857">Pembayaran berhasil?</text><text fill="#000000" font-family="sans-serif" font-size="46.875" lengthAdjust="spacing" textLength="51.5625" x="10035.9375" y="4452.9877">ya</text><text fill="#000000" font-family="sans-serif" font-size="46.875" lengthAdjust="spacing" textLength="103.125" x="10701.5625" y="4452.9877">tidak</text><rect fill="#ADD8E6" height="158.606" rx="58.5938" ry="58.5938" style="stroke:#0000FF;stroke-width:2.34375;" width="707.8125" x="9480.4688" y="4613.2874"/><text fill="#000000" font-family="sans-serif" font-size="51.5625" lengthAdjust="spacing" textLength="614.0625" x="9527.3438" y="4713.6887">Kirim notifikasi pembayaran</text><rect fill="#ADD8E6" height="158.606" rx="58.5938" ry="58.5938" style="stroke:#0000FF;stroke-width:2.34375;" width="843.75" x="10532.8125" y="4613.2874"/><text fill="#000000" font-family="sans-serif" font-size="51.5625" lengthAdjust="spacing" textLength="750" x="10579.6875" y="4713.6887">Kirim notifikasi pembayaran gagal</text><line style="stroke:#000000;stroke-width:7.03125;" x1="9452.3438" x2="9452.3438" y1="239.3646" y2="6580.0049"/><line style="stroke:#000000;stroke-width:7.03125;" x1="11395.3125" x2="11395.3125" y1="239.3646" y2="6580.0049"/><line style="stroke:#00008B;stroke-width:3.75;" x1="3091.9922" x2="3091.9922" y1="462.6801" y2="556.4301"/><polygon fill="#00008B" points="3073.2422,509.5551,3091.9922,556.4301,3110.7422,509.5551,3091.9922,528.3051" style="stroke:#00008B;stroke-width:4.6875;"/><line style="stroke:#00008B;stroke-width:3.75;" x1="3091.9922" x2="3091.9922" y1="715.036" y2="808.786"/><polygon fill="#00008B" points="3073.2422,761.911,3091.9922,808.786,3110.7422,761.911,3091.9922,780.661" style="stroke:#00008B;stroke-width:4.6875;"/><line style="stroke:#00008B;stroke-width:3.75;" x1="3091.9922" x2="3091.9922" y1="967.392" y2="1061.142"/><polygon fill="#00008B" points="3073.2422,1014.267,3091.9922,1061.142,3110.7422,1014.267,3091.9922,1033.017" style="stroke:#00008B;stroke-width:4.6875;"/><line style="stroke:#00008B;stroke-width:3.75;" x1="1983.9844" x2="1983.9844" y1="2094.6442" y2="2188.3942"/><polygon fill="#00008B" points="1965.2344,2141.5192,1983.9844,2188.3942,2002.7344,2141.5192,1983.9844,2160.2692" style="stroke:#00008B;stroke-width:4.6875;"/><line style="stroke:#00008B;stroke-width:3.75;" x1="1139.0625" x2="1139.0625" y1="3474.2523" y2="3568.0023"/><polygon fill="#00008B" points="1120.3125,3521.1273,1139.0625,3568.0023,1157.8125,3521.1273,1139.0625,3539.8773" style="stroke:#00008B;stroke-width:4.6875;"/><line style="stroke:#00008B;stroke-width:3.75;" x1="578.9063" x2="578.9063" y1="6074.5239" y2="6168.2739"/><polygon fill="#00008B" points="560.1563,6121.3989,578.9063,6168.2739,597.6563,6121.3989,578.9063,6140.1489" style="stroke:#00008B;stroke-width:4.6875;"/><line style="stroke:#00008B;stroke-width:3.75;" x1="578.9063" x2="578.9063" y1="6326.8799" y2="6420.6299"/><polygon fill="#00008B" points="560.1563,6373.7549,578.9063,6420.6299,597.6563,6373.7549,578.9063,6392.5049" style="stroke:#00008B;stroke-width:4.6875;"/><line style="stroke:#00008B;stroke-width:3.75;" x1="1699.2188" x2="1699.2188" y1="5487.8448" y2="5640.5548"/><polygon fill="#00008B" points="1680.4688,5593.6798,1699.2188,5640.5548,1717.9688,5593.6798,1699.2188,5612.4298" style="stroke:#00008B;stroke-width:4.6875;"/><line style="stroke:#00008B;stroke-width:3.75;" x1="2828.9063" x2="2828.9063" y1="3474.2523" y2="3568.0023"/><polygon fill="#00008B" points="2810.1563,3521.1273,2828.9063,3568.0023,2847.6563,3521.1273,2828.9063,3539.8773" style="stroke:#00008B;stroke-width:4.6875;"/><line style="stroke:#00008B;stroke-width:3.75;" x1="4200" x2="4200" y1="2094.6442" y2="2188.3942"/><polygon fill="#00008B" points="4181.25,2141.5192,4200,2188.3942,4218.75,2141.5192,4200,2160.2692" style="stroke:#00008B;stroke-width:4.6875;"/><line style="stroke:#00008B;stroke-width:3.75;" x1="5233.5938" x2="5233.5938" y1="5106.2164" y2="5270.2789"/><polygon fill="#00008B" points="5214.8438,5223.4039,5233.5938,5270.2789,5252.3438,5223.4039,5233.5938,5242.1539" style="stroke:#00008B;stroke-width:4.6875;"/><line style="stroke:#00008B;stroke-width:3.75;" x1="5233.5938" x2="5233.5938" y1="5428.8849" y2="5581.5948"/><polygon fill="#00008B" points="5214.8438,5534.7198,5233.5938,5581.5948,5252.3438,5534.7198,5233.5938,5553.4698" style="stroke:#00008B;stroke-width:4.6875;"/><line style="stroke:#00008B;stroke-width:3.75;" x1="6418.3594" x2="5793.75" y1="2831.3232" y2="2831.3232"/><line style="stroke:#00008B;stroke-width:3.75;" x1="5793.75" x2="5793.75" y1="2831.3232" y2="2981.3232"/><polygon fill="#00008B" points="5775,2934.4482,5793.75,2981.3232,5812.5,2934.4482,5793.75,2953.1982" style="stroke:#00008B;stroke-width:4.6875;"/><line style="stroke:#00008B;stroke-width:3.75;" x1="6858.9844" x2="7483.5938" y1="2831.3232" y2="2831.3232"/><line style="stroke:#00008B;stroke-width:3.75;" x1="7483.5938" x2="7483.5938" y1="2831.3232" y2="2981.3232"/><polygon fill="#00008B" points="7464.8438,2934.4482,7483.5938,2981.3232,7502.3438,2934.4482,7483.5938,2953.1982" style="stroke:#00008B;stroke-width:4.6875;"/><line style="stroke:#00008B;stroke-width:3.75;" x1="6638.6719" x2="6638.6719" y1="2681.3232" y2="2775.0732"/><polygon fill="#00008B" points="6619.9219,2728.1982,6638.6719,2775.0732,6657.4219,2728.1982,6638.6719,2746.9482" style="stroke:#00008B;stroke-width:4.6875;"/><line style="stroke:#00008B;stroke-width:3.75;" x1="7357.6172" x2="6638.6719" y1="1451.7151" y2="1451.7151"/><line style="stroke:#00008B;stroke-width:3.75;" x1="6638.6719" x2="6638.6719" y1="1451.7151" y2="1601.7151"/><polygon fill="#00008B" points="6619.9219,1554.8401,6638.6719,1601.7151,6657.4219,1554.8401,6638.6719,1573.5901" style="stroke:#00008B;stroke-width:4.6875;"/><line style="stroke:#00008B;stroke-width:3.75;" x1="8135.7422" x2="8854.6875" y1="1451.7151" y2="1451.7151"/><line style="stroke:#00008B;stroke-width:3.75;" x1="8854.6875" x2="8854.6875" y1="1451.7151" y2="1601.7151"/><polygon fill="#00008B" points="8835.9375,1554.8401,8854.6875,1601.7151,8873.4375,1554.8401,8854.6875,1573.5901" style="stroke:#00008B;stroke-width:4.6875;"/><line style="stroke:#00008B;stroke-width:3.75;" x1="10394.5313" x2="10394.5313" y1="4060.9314" y2="4154.6814"/><polygon fill="#00008B" points="10375.7813,4107.8064,10394.5313,4154.6814,10413.2813,4107.8064,10394.5313,4126.5564" style="stroke:#00008B;stroke-width:4.6875;"/><line style="stroke:#00008B;stroke-width:3.75;" x1="10087.5" x2="9834.375" y1="4463.2874" y2="4463.2874"/><line style="stroke:#00008B;stroke-width:3.75;" x1="9834.375" x2="9834.375" y1="4463.2874" y2="4613.2874"/><polygon fill="#00008B" points="9815.625,4566.4124,9834.375,4613.2874,9853.125,4566.4124,9834.375,4585.1624" style="stroke:#00008B;stroke-width:4.6875;"/><line style="stroke:#00008B;stroke-width:3.75;" x1="10701.5625" x2="10954.6875" y1="4463.2874" y2="4463.2874"/><line style="stroke:#00008B;stroke-width:3.75;" x1="10954.6875" x2="10954.6875" y1="4463.2874" y2="4613.2874"/><polygon fill="#00008B" points="10935.9375,4566.4124,10954.6875,4613.2874,10973.4375,4566.4124,10954.6875,4585.1624" style="stroke:#00008B;stroke-width:4.6875;"/><line style="stroke:#00008B;stroke-width:3.75;" x1="10394.5313" x2="10394.5313" y1="4313.2874" y2="4407.0374"/><polygon fill="#00008B" points="10375.7813,4360.1624,10394.5313,4407.0374,10413.2813,4360.1624,10394.5313,4378.9124" style="stroke:#00008B;stroke-width:4.6875;"/><line style="stroke:#00008B;stroke-width:3.75;" x1="6638.6719" x2="6638.6719" y1="1760.321" y2="1865.7257"/><line style="stroke:#00008B;stroke-width:3.75;" x1="6638.6719" x2="1983.9844" y1="1865.7257" y2="1865.7257"/><line style="stroke:#00008B;stroke-width:3.75;" x1="1983.9844" x2="1983.9844" y1="1865.7257" y2="1936.0382"/><polygon fill="#00008B" points="1965.2344,1889.1632,1983.9844,1936.0382,2002.7344,1889.1632,1983.9844,1907.9132" style="stroke:#00008B;stroke-width:4.6875;"/><text fill="#000000" font-family="sans-serif" font-size="46.875" lengthAdjust="spacing" textLength="576.5625" x="6657.4219" y="1835.257">Informasi tiket ditampilkan</text><line style="stroke:#00008B;stroke-width:3.75;" x1="1983.9844" x2="1983.9844" y1="2347.0001" y2="2452.4048"/><line style="stroke:#00008B;stroke-width:3.75;" x1="1983.9844" x2="6638.6719" y1="2452.4048" y2="2452.4048"/><line style="stroke:#00008B;stroke-width:3.75;" x1="6638.6719" x2="6638.6719" y1="2452.4048" y2="2522.7173"/><polygon fill="#00008B" points="6619.9219,2475.8423,6638.6719,2522.7173,6657.4219,2475.8423,6638.6719,2494.5923" style="stroke:#00008B;stroke-width:4.6875;"/><text fill="#000000" font-family="sans-serif" font-size="46.875" lengthAdjust="spacing" textLength="529.6875" x="2002.7344" y="2421.936">Permintaan pemesanan</text><line style="stroke:#00008B;stroke-width:3.75;" x1="5793.75" x2="5793.75" y1="3139.9292" y2="3245.3339"/><line style="stroke:#00008B;stroke-width:3.75;" x1="5793.75" x2="1139.0625" y1="3245.3339" y2="3245.3339"/><line style="stroke:#00008B;stroke-width:3.75;" x1="1139.0625" x2="1139.0625" y1="3245.3339" y2="3315.6464"/><polygon fill="#00008B" points="1120.3125,3268.7714,1139.0625,3315.6464,1157.8125,3268.7714,1139.0625,3287.5214" style="stroke:#00008B;stroke-width:4.6875;"/><text fill="#000000" font-family="sans-serif" font-size="46.875" lengthAdjust="spacing" textLength="417.1875" x="5812.5" y="3214.8651">Pemesanan dibuat</text><line style="stroke:#00008B;stroke-width:3.75;" x1="1139.0625" x2="1139.0625" y1="3726.6083" y2="3832.0129"/><line style="stroke:#00008B;stroke-width:3.75;" x1="1139.0625" x2="10394.5313" y1="3832.0129" y2="3832.0129"/><line style="stroke:#00008B;stroke-width:3.75;" x1="10394.5313" x2="10394.5313" y1="3832.0129" y2="3902.3254"/><polygon fill="#00008B" points="10375.7813,3855.4504,10394.5313,3902.3254,10413.2813,3855.4504,10394.5313,3874.2004" style="stroke:#00008B;stroke-width:4.6875;"/><text fill="#000000" font-family="sans-serif" font-size="46.875" lengthAdjust="spacing" textLength="848.4375" x="1157.8125" y="3801.5442">Mengarahkan ke gateway pembayaran</text><line style="stroke:#00008B;stroke-width:3.75;" x1="9834.375" x2="9834.375" y1="4771.8933" y2="4877.298"/><line style="stroke:#00008B;stroke-width:3.75;" x1="9834.375" x2="5233.5938" y1="4877.298" y2="4877.298"/><line style="stroke:#00008B;stroke-width:3.75;" x1="5233.5938" x2="5233.5938" y1="4877.298" y2="4947.6105"/><polygon fill="#00008B" points="5214.8438,4900.7355,5233.5938,4947.6105,5252.3438,4900.7355,5233.5938,4919.4855" style="stroke:#00008B;stroke-width:4.6875;"/><text fill="#000000" font-family="sans-serif" font-size="46.875" lengthAdjust="spacing" textLength="342.1875" x="9853.125" y="4846.8292">Notifikasi sukses</text><line style="stroke:#00008B;stroke-width:3.75;" x1="5233.5938" x2="5233.5938" y1="5740.2008" y2="5845.6055"/><line style="stroke:#00008B;stroke-width:3.75;" x1="5233.5938" x2="578.9063" y1="5845.6055" y2="5845.6055"/><line style="stroke:#00008B;stroke-width:3.75;" x1="578.9063" x2="578.9063" y1="5845.6055" y2="5915.918"/><polygon fill="#00008B" points="560.1563,5869.043,578.9063,5915.918,597.6563,5869.043,578.9063,5887.793" style="stroke:#00008B;stroke-width:4.6875;"/><text fill="#000000" font-family="sans-serif" font-size="46.875" lengthAdjust="spacing" textLength="487.5" x="5252.3438" y="5815.1367">Pemberitahuan sukses</text><line style="stroke:#00008B;stroke-width:3.75;" x1="10954.6875" x2="10954.6875" y1="4771.8933" y2="4877.298"/><line style="stroke:#00008B;stroke-width:3.75;" x1="10954.6875" x2="6353.9063" y1="4877.298" y2="4877.298"/><line style="stroke:#00008B;stroke-width:3.75;" x1="6353.9063" x2="6353.9063" y1="4877.298" y2="4947.6105"/><polygon fill="#00008B" points="6335.1563,4900.7355,6353.9063,4947.6105,6372.6563,4900.7355,6353.9063,4919.4855" style="stroke:#00008B;stroke-width:4.6875;"/><text fill="#000000" font-family="sans-serif" font-size="46.875" lengthAdjust="spacing" textLength="337.5" x="10973.4375" y="4846.8292">Notifikasi gagal</text><line style="stroke:#00008B;stroke-width:3.75;" x1="6353.9063" x2="6353.9063" y1="5106.2164" y2="5217.7277"/><line style="stroke:#00008B;stroke-width:3.75;" x1="6353.9063" x2="1699.2188" y1="5217.7277" y2="5217.7277"/><line style="stroke:#00008B;stroke-width:3.75;" x1="1699.2188" x2="1699.2188" y1="5217.7277" y2="5329.2389"/><polygon fill="#00008B" points="1680.4688,5282.3639,1699.2188,5329.2389,1717.9688,5282.3639,1699.2188,5301.1139" style="stroke:#00008B;stroke-width:4.6875;"/><text fill="#000000" font-family="sans-serif" font-size="46.875" lengthAdjust="spacing" textLength="482.8125" x="6372.6563" y="5181.1523">Pemberitahuan gagal</text><line style="stroke:#00008B;stroke-width:3.75;" x1="7483.5938" x2="7483.5938" y1="3139.9292" y2="3245.3339"/><line style="stroke:#00008B;stroke-width:3.75;" x1="7483.5938" x2="2828.9063" y1="3245.3339" y2="3245.3339"/><line style="stroke:#00008B;stroke-width:3.75;" x1="2828.9063" x2="2828.9063" y1="3245.3339" y2="3315.6464"/><polygon fill="#00008B" points="2810.1563,3268.7714,2828.9063,3315.6464,2847.6563,3268.7714,2828.9063,3287.5214" style="stroke:#00008B;stroke-width:4.6875;"/><text fill="#000000" font-family="sans-serif" font-size="46.875" lengthAdjust="spacing" textLength="632.8125" x="7502.3438" y="3214.8651">Pemberitahuan ketersediaan</text><line style="stroke:#00008B;stroke-width:3.75;" x1="8854.6875" x2="8854.6875" y1="1760.321" y2="1865.7257"/><line style="stroke:#00008B;stroke-width:3.75;" x1="8854.6875" x2="4200" y1="1865.7257" y2="1865.7257"/><line style="stroke:#00008B;stroke-width:3.75;" x1="4200" x2="4200" y1="1865.7257" y2="1936.0382"/><polygon fill="#00008B" points="4181.25,1889.1632,4200,1936.0382,4218.75,1889.1632,4200,1907.9132" style="stroke:#00008B;stroke-width:4.6875;"/><text fill="#000000" font-family="sans-serif" font-size="46.875" lengthAdjust="spacing" textLength="632.8125" x="8873.4375" y="1835.257">Pemberitahuan ketersediaan</text><line style="stroke:#00008B;stroke-width:3.75;" x1="3091.9922" x2="3091.9922" y1="1219.7479" y2="1325.1526"/><line style="stroke:#00008B;stroke-width:3.75;" x1="3091.9922" x2="7746.6797" y1="1325.1526" y2="1325.1526"/><line style="stroke:#00008B;stroke-width:3.75;" x1="7746.6797" x2="7746.6797" y1="1325.1526" y2="1395.4651"/><polygon fill="#00008B" points="7727.9297,1348.5901,7746.6797,1395.4651,7765.4297,1348.5901,7746.6797,1367.3401" style="stroke:#00008B;stroke-width:4.6875;"/><text fill="#000000" font-family="sans-serif" font-size="46.875" lengthAdjust="spacing" textLength="768.75" x="3110.7422" y="1294.6838">Melihat ketersediaan pertandingan</text><text fill="#000000" font-family="sans-serif" font-size="84.375" lengthAdjust="spacing" textLength="384.375" x="2192.5781" y="326.9531">Pengguna</text><text fill="#000000" font-family="sans-serif" font-size="84.375" lengthAdjust="spacing" textLength="1528.125" x="6358.5938" y="326.9531">:Redirect ke Midtrans Payment Gateway;</text><text fill="#000000" font-family="sans-serif" font-size="84.375" lengthAdjust="spacing" textLength="323.4375" x="10262.1094" y="326.9531">Midtrans</text><!--SRC=[dLHDRziu4BthLmpIGvn32nVxWOK3T17NQBfeqlKcsSCU9zPOOaIH0abjreL_V8Ua9DEo4XGB18d2-NflvisSmnUjjg9e3Le1hN9j1RfrJUlWyogp6vG4xz_zajbAg0ODrf0t0dwQpxFiV2hK25BE_r_ovpVDtn9c4bNEgHgwIFAiiQ0_exiJMi7WbFZSeQfoOK3Ire7JO4HHkkdADTMFBJh81HO-LDAZA86_6g6A9ENLneb_XTlTbrmAZ6vLljJ_fGx6wETFZFnUV6FkyudOW_NzYs0QCfOhLmofGOLbaaRfd2mry7EQsp1L__ZhV8pbeHIRIf6rC7_tszZuKKjjO8McMiesRPqKYjoEAMhZIZs6-On68UIemFaESUydQ2vnKnMXGx7AZU_-gCpWgqrE9lgDNLx5-LKxcYpq3qcfdyUUIHcVx5hBdDITpe-4PPpmaXgdlP9YGwFo1-SayxqZai4nOoDlmAeJrLKLsAA5jx0ssfA5DTLaUS0A7aH53cQV3yA_mHtlqaMMxTyClTklIHL5gt3FhsjUhsj3fFRtmZggzxrd9B-_5RbZOTWzfpZ4MSUWiyMDBeI2YY36NcQBMr8RD88n6SVRnF935PwbA5c7At8evCZwzWFqTeRFeYNU86RJ77bb0q2nXLcQ0MhMKmbzvEyNu4fICDlXHGQmU0ZogjYFDu4AxarGNOccG72-OvVinY3-K5jjVAxuodli-b3lmJz91pZnBTM2OH-dVMfhYUKXx-AB51KJjlrukc9Ce1Oyei2pcrzVfIVAqUmcAel7ZHcI-qx4cRz0dZCimqb2XrmdgcGMT7Pn6Um1Ig-VNFW35WtXrn7XX79DZY-8H_w8ErQnYZ6HxD8_3Tavf9KeJdnZ_evg2BvZ0eOsNWNGouwtOrVpWOPhRl8pxfAqF7g3PPWhGH7DBrGvYBXZeGPDwCQUOlCycxXSOrCKN_y6ZsHALemywRjlXZ32dredjgB2YJA1oDU3tRPyVsrlw_uaQWXP_svuc0IyWQvDuV5Cr1Fc0iuR5FbvdsLnJOgCZ_Zh3ZxweGtgUHaaRsF2BG7hcRCY7POjEqpZFPPCR3V7rFXZLRmxX-TjjqImNds2dCAYTnHwL-jq4pv9MeAP4pbMVVT7Ctzz72oV0kNqK8vC_ticMpvxT9ZAIIidg_nm9wTO79h3PtARJJJfY4Lo9iETWBFki7Z_uRoSfKSZWP-UfrVFHuS_bd0J5M9q1pv27m5Fp-C9Q2xurA8SajisvslCbxnrRNCstDxNi4_S-IFKpQX4bzo71jWHz7S0]--></g></svg>